{
	"asset":{
		"generator":"Khronos glTF Blender I/O v3.5.30",
		"version":"2.0"
	},
	"scene":0,
	"scenes":[
		{
			"name":"Scene",
			"nodes":[
				0
			]
		}
	],
	"nodes":[
		{
			"mesh":0,
			"name":"Text"
		}
	],
	"meshes":[
		{
			"name":"Text",
			"primitives":[
				{
					"attributes":{
						"POSITION":0,
						"TEXCOORD_0":1,
						"NORMAL":2
					},
					"indices":3
				}
			]
		}
	],
	"accessors":[
		{
			"bufferView":0,
			"componentType":5126,
			"count":364,
			"max":[
				37.080440521240234,
				35.87877655029297,
				7.894932991803216e-07
			],
			"min":[
				-36.150108337402344,
				0.8787727355957031,
				-7.404054258586257e-07
			],
			"type":"VEC3"
		},
		{
			"bufferView":1,
			"componentType":5126,
			"count":364,
			"type":"VEC2"
		},
		{
			"bufferView":2,
			"componentType":5126,
			"count":364,
			"type":"VEC3"
		},
		{
			"bufferView":3,
			"componentType":5123,
			"count":1068,
			"type":"SCALAR"
		}
	],
	"bufferViews":[
		{
			"buffer":0,
			"byteLength":4368,
			"byteOffset":0,
			"target":34962
		},
		{
			"buffer":0,
			"byteLength":2912,
			"byteOffset":4368,
			"target":34962
		},
		{
			"buffer":0,
			"byteLength":4368,
			"byteOffset":7280,
			"target":34962
		},
		{
			"buffer":0,
			"byteLength":2136,
			"byteOffset":11648,
			"target":34963
		}
	],
	"buffers":[
		{
			"byteLength":13784,
			"uri":"data:application/octet-stream;base64,"
		}
	]
}
